<?xml version="1.0" encoding="UTF-8"?>
<svg version="1.1" xmlns="http://www.w3.org/2000/svg" width="600" height="520">
<path d="M0 0 C198 0 396 0 600 0 C600 171.6 600 343.2 600 520 C402 520 204 520 0 520 C0 348.4 0 176.8 0 0 Z " fill="#FEFEFE" transform="translate(0,0)"/>
<path d="M0 0 C7.23075945 1.89377033 11.00674463 11.62918554 14.4453125 17.49609375 C15.1168335 18.62909912 15.78835449 19.76210449 16.48022461 20.92944336 C20.38332969 27.53028979 24.23599691 34.15752942 28.01171875 40.83203125 C36.05154056 55.01432476 44.39125247 69.02980163 52.6953125 83.05859375 C53.36175781 84.18547607 54.02820313 85.3123584 54.71484375 86.47338867 C57.45350926 91.09245143 60.20120652 95.69276288 63.09765625 100.21484375 C65.1328125 103.55859375 65.1328125 103.55859375 65.1328125 105.55859375 C64.40777527 105.55779816 63.68273804 105.55700256 62.93572998 105.55618286 C56.05201164 105.55396113 49.16892799 105.5807401 42.28547287 105.63887215 C38.74775611 105.6677588 35.21069338 105.68601968 31.67285156 105.67871094 C27.59117281 105.67077036 23.51115474 105.71135775 19.4296875 105.75390625 C18.17919617 105.74481232 16.92870483 105.73571838 15.64031982 105.72634888 C5.28751171 105.89511728 -2.99746273 108.8860742 -10.8046875 115.80859375 C-16.61052299 122.18223711 -19.96707268 130.10202976 -20.1171875 138.68359375 C-20.14296875 139.55242187 -20.16875 140.42125 -20.1953125 141.31640625 C-19.14322442 151.71203843 -14.04974707 160.10855321 -8.8671875 168.93359375 C-8.13452557 170.20261094 -7.4027486 171.4721395 -6.671875 172.7421875 C-3.23939175 178.96602928 -3.23939175 178.96602928 0.98828125 184.63134766 C1.36597656 185.26733887 1.74367188 185.90333008 2.1328125 186.55859375 C1.48339844 189.00854492 1.48339844 189.00854492 0.1328125 191.55859375 C-0.27420898 192.34016846 -0.68123047 193.12174316 -1.10058594 193.92700195 C-2.60043439 196.57834868 -4.10426972 199.22717768 -5.6171875 201.87109375 C-6.38675781 203.23911133 -6.38675781 203.23911133 -7.171875 204.63476562 C-10.37019829 210.23986736 -13.7358577 215.58804209 -17.8671875 220.55859375 C-18.29612305 221.08493408 -18.72505859 221.61127441 -19.16699219 222.15356445 C-24.11910298 226.24595354 -30.41311668 225.85531087 -36.48095703 225.84912109 C-37.43125793 225.85583832 -38.38155884 225.86255554 -39.36065674 225.86947632 C-42.49049148 225.88841918 -45.62011157 225.89237793 -48.75 225.89453125 C-50.92902718 225.90095918 -53.10805349 225.90768754 -55.28707886 225.91470337 C-59.84814456 225.92666498 -64.40913456 225.93038508 -68.97021484 225.92919922 C-74.81924081 225.92899551 -80.66778376 225.95635698 -86.51669502 225.99074364 C-91.0136438 226.0129539 -95.51047497 226.01703865 -100.00747299 226.01597977 C-102.16448515 226.0183423 -104.32150023 226.02720236 -106.4784584 226.0426445 C-109.49005591 226.06219566 -112.5005932 226.05651029 -115.51220703 226.04443359 C-116.85105453 226.06129211 -116.85105453 226.06129211 -118.21694946 226.07849121 C-124.26068982 226.01676746 -124.26068982 226.01676746 -127.38937378 223.65322876 C-129.6641821 220.4289434 -130.36904178 218.0057985 -130.30517578 214.00292969 C-129.35333651 208.6908813 -126.08631632 204.22134097 -123.3046875 199.68359375 C-122.6199855 198.53771896 -121.93715794 197.39072227 -121.25610352 196.24267578 C-119.84065276 193.85988584 -118.41729005 191.48210331 -116.98828125 189.10742188 C-113.68124077 183.59543698 -110.50115319 178.01013735 -107.3046875 172.43359375 C-102.42169286 163.95535711 -97.49851743 155.501466 -92.5546875 147.05859375 C-88.06993056 139.39664175 -83.684178 131.69071892 -79.40185547 123.9140625 C-76.3487491 118.38428422 -73.17892548 112.93250777 -69.95898438 107.49853516 C-66.12823275 101.02644216 -62.36932564 94.51402266 -58.6171875 87.99609375 C-53.74950632 79.54189333 -48.85691227 71.10322305 -43.9296875 62.68359375 C-39.1549552 54.5236482 -34.44451549 46.32888466 -29.76885986 38.11193848 C-24.59113848 29.01729749 -19.39106633 19.93635145 -14.0546875 10.93359375 C-13.56919434 10.1044043 -13.08370117 9.27521484 -12.58349609 8.42089844 C-12.13441895 7.66969727 -11.6853418 6.91849609 -11.22265625 6.14453125 C-10.83746826 5.49532715 -10.45228027 4.84612305 -10.05541992 4.17724609 C-7.31368081 0.44235184 -4.3611778 0.2650912 0 0 Z " fill="#231F20" transform="translate(300.8671875,146.44140625)"/>
<path d="M0 0 C1.20167313 -0.00960754 2.40334625 -0.01921509 3.64143372 -0.02911377 C4.94142807 -0.03336365 6.24142242 -0.03761353 7.58081055 -0.04199219 C8.92978415 -0.04774712 10.27875774 -0.05350481 11.62773132 -0.05926514 C14.45641459 -0.069766 17.28506952 -0.07561441 20.11376953 -0.07910156 C23.7284919 -0.08457964 27.34283634 -0.10859634 30.95744038 -0.13707352 C33.7447975 -0.15575098 36.53206459 -0.16090823 39.31947899 -0.16243744 C41.29695883 -0.16691553 43.27439038 -0.18553813 45.25178528 -0.20440674 C46.46291489 -0.20140564 47.67404449 -0.19840454 48.921875 -0.1953125 C49.98316116 -0.19895813 51.04444733 -0.20260376 52.13789368 -0.20635986 C57.13686428 0.40252396 60.3099599 2.27412764 63.75268555 5.88769531 C66.34882162 9.25347777 68.48919843 12.8488614 70.5925293 16.53613281 C71.474 18.05829123 72.35551283 19.58042525 73.23706055 21.10253906 C73.70708496 21.91867676 74.17710937 22.73481445 74.66137695 23.57568359 C76.21522921 26.26533632 77.78288345 28.94652007 79.35424805 31.62597656 C84.37502178 40.19206393 89.37213818 48.77088116 94.29174805 57.39550781 C94.6377002 58.00184052 94.98365234 58.60817322 95.34008789 59.23287964 C97.0673382 62.26206299 98.79074423 65.2933611 100.5090332 68.32763672 C103.7080156 73.9648846 106.97550388 79.52906667 110.47167969 84.98754883 C115.68265066 93.18297522 115.68265066 93.18297522 116.0300293 98.28613281 C114.98379151 102.91947158 113.85743219 104.25189924 110.1550293 107.16113281 C107.38542626 107.66220874 105.22606143 107.85734202 102.46240234 107.82397461 C101.32478455 107.83952644 101.32478455 107.83952644 100.16418457 107.85539246 C97.6644836 107.88242905 95.16654201 107.87280656 92.66674805 107.86035156 C90.92185479 107.86626329 89.17696559 107.8735112 87.43208313 107.8820343 C83.77612165 107.89391022 80.12076907 107.88721729 76.46484375 107.86791992 C71.79388835 107.84507782 67.12475758 107.87176231 62.45398235 107.91298199 C58.84977494 107.93864223 55.24599897 107.93595714 51.64173317 107.92508888 C49.92064575 107.92360787 48.19952432 107.93122636 46.47852135 107.94833946 C30.0926369 108.08478653 30.0926369 108.08478653 24.49934387 102.75871277 C22.79617008 100.73466545 21.32965968 98.83938581 20.0925293 96.49316406 C19.61420654 95.6138623 19.13588379 94.73456055 18.64306641 93.82861328 C18.15201416 92.88646973 17.66096191 91.94432617 17.1550293 90.97363281 C16.03434677 88.90819176 14.91051093 86.84445932 13.78393555 84.78222656 C13.19757324 83.70183105 12.61121094 82.62143555 12.00708008 81.50830078 C8.83370542 75.77313514 5.45742639 70.16032941 2.0925293 64.53613281 C-2.88872981 56.16546475 -7.85305468 47.78642064 -12.7199707 39.34863281 C-13.21376221 38.50155762 -13.70755371 37.65448242 -14.21630859 36.78173828 C-18.40155087 29.4845839 -21.32353066 22.7110665 -19.8449707 14.16113281 C-17.34672185 8.80535517 -13.82997267 4.3946476 -8.8449707 1.16113281 C-5.65670453 0.09837742 -3.35099718 0.02160793 0 0 Z " fill="#221E1F" transform="translate(313.844970703125,265.8388671875)"/>
<path d="M0 0 C-0.99 0 -1.98 0 -3 0 C-2.67 0.99 -2.34 1.98 -2 3 C-2.78375 3.12375 -3.5675 3.2475 -4.375 3.375 C-7.14057822 3.79117993 -7.14057822 3.79117993 -9 6 C-10.64991582 6.70710678 -12.31562256 7.37943989 -14 8 C-12.50521886 4.19510255 -10.30557786 2.33809165 -7 0 C-3.86650268 -1.04449911 -3.01031744 -0.93423645 0 0 Z " fill="#2D2C2C" transform="translate(312,267)"/>
<path d="M0 0 C2 2 2 2 2.125 4.625 C2.08375 5.40875 2.0425 6.1925 2 7 C0.35 7.33 -1.3 7.66 -3 8 C-3 8.66 -3 9.32 -3 10 C-3.66 9.67 -4.32 9.34 -5 9 C-3.35 6.03 -1.7 3.06 0 0 Z " fill="#2B2829" transform="translate(179,344)"/>
<path d="M0 0 C2.79872437 2.52788007 4.45773019 4.20411134 5 8 C2.625 7.3125 2.625 7.3125 0 6 C-1.3125 3.375 -1.3125 3.375 -2 1 C-1.34 0.67 -0.68 0.34 0 0 Z " fill="#2E2B2C" transform="translate(387,289)"/>
<path d="M0 0 C1.32 0.66 2.64 1.32 4 2 C3.01 2.495 3.01 2.495 2 3 C2 3.99 2 4.98 2 6 C1.34 6 0.68 6 0 6 C-0.33 6.99 -0.66 7.98 -1 9 C-2.1875 7.3125 -2.1875 7.3125 -3 5 C-1.625 2.25 -1.625 2.25 0 0 Z " fill="#292727" transform="translate(228,259)"/>
<path d="M0 0 C2.72426311 2.35277269 3.8141763 4.62496331 5 8 C3.125 7.6875 3.125 7.6875 1 7 C-1 4 -1 4 -0.625 1.8125 C-0.41875 1.214375 -0.2125 0.61625 0 0 Z " fill="#292728" transform="translate(405,320)"/>
<path d="M0 0 C1.32 0 2.64 0 4 0 C5.8125 2.3125 5.8125 2.3125 7 5 C6.67 5.99 6.34 6.98 6 8 C4 7 4 7 3 4 C2.01 3.34 1.02 2.68 0 2 C0 1.34 0 0.68 0 0 Z " fill="#282526" transform="translate(353,235)"/>
<path d="M0 0 C1.32 0.66 2.64 1.32 4 2 C2.35 3.65 0.7 5.3 -1 7 C-0.67 4.69 -0.34 2.38 0 0 Z " fill="#2D2B2C" transform="translate(290,256)"/>
<path d="M0 0 C2.12508244 3.18762365 2.5020163 5.26512223 3 9 C1.0625 8.1875 1.0625 8.1875 -1 7 C-1.33 6.01 -1.66 5.02 -2 4 C-1.34 4 -0.68 4 0 4 C0 2.68 0 1.36 0 0 Z " fill="#2A2728" transform="translate(335,199)"/>
<path d="M0 0 C0 0.66 0 1.32 0 2 C0.66 2.33 1.32 2.66 2 3 C1.34 3.66 0.68 4.32 0 5 C-2.475 4.01 -2.475 4.01 -5 3 C-2.25 0 -2.25 0 0 0 Z " fill="#292828" transform="translate(297,147)"/>
</svg>
